<?xml version="1.0" encoding="UTF-8"?>
<svg id="Carrie_Leff_Social_Icon_x5F_RGB" xmlns="http://www.w3.org/2000/svg" version="1.1" viewBox="0 0 1080 1080">
  <!-- Generator: Adobe Illustrator 30.2.1, SVG Export Plug-In . SVG Version: 2.1.1 Build 1)  -->
  <defs>
    <style>
      .st0 {
        fill: #5b0048;
      }

      .st1 {
        fill: #fff;
      }

      .st2 {
        fill: #ff4a76;
      }
    </style>
  </defs>
  <path class="st0" d="M1080,1080H0V0h1080v1080Z"/>
  <g>
    <g>
      <path class="st1" d="M692.26,387.78c9.04,26.89,13.95,55.68,13.95,85.62l-.02,401.67h168.87l.02-232.8c0-118.32-76.55-218.75-182.82-254.49"/>
      <path class="st2" d="M692.26,387.78c-35.74-106.27-136.17-182.82-254.49-182.82l-63.96-.02v168.87l232.83.02c29.94,0,58.72,4.9,85.62,13.95"/>
    </g>
    <g>
      <path class="st1" d="M387.76,692.23c-9.04-26.89-13.95-55.68-13.95-85.62l.02-401.67h-168.87l-.02,232.8c0,118.31,76.55,218.75,182.82,254.49"/>
      <path class="st2" d="M387.76,692.23c35.74,106.27,136.18,182.82,254.49,182.82h63.96s0-168.86,0-168.86l-232.83-.02c-29.94,0-58.73-4.9-85.62-13.95"/>
    </g>
  </g>
</svg>