<?xml version="1.0" encoding="UTF-8"?>
<svg id="Carrie_Leff_Mark_x5F_RGB" xmlns="http://www.w3.org/2000/svg" version="1.1" viewBox="0 0 792 612">
  <!-- Generator: Adobe Illustrator 30.2.1, SVG Export Plug-In . SVG Version: 2.1.1 Build 1)  -->
  <defs>
    <style>
      .st0 {
        fill: #5b0048;
      }

      .st1 {
        fill: #ff4a76;
      }
    </style>
  </defs>
  <g>
    <path class="st0" d="M459.9,242.11c3.8,11.29,5.85,23.37,5.85,35.93v168.58s70.87,0,70.87,0v-97.71c0-49.66-32.12-91.81-76.72-106.81"/>
    <path class="st1" d="M459.9,242.11c-15-44.6-57.15-76.73-106.81-76.73h-26.84s0,70.87,0,70.87h97.72c12.56,0,24.65,2.07,35.93,5.86"/>
  </g>
  <g>
    <path class="st0" d="M332.1,369.89c-3.8-11.29-5.85-23.37-5.85-35.93v-168.58s-70.87,0-70.87,0v97.71c0,49.66,32.12,91.81,76.72,106.81"/>
    <path class="st1" d="M332.1,369.89c15,44.6,57.15,76.73,106.81,76.73h26.85s0-70.87,0-70.87h-97.72c-12.56,0-24.65-2.07-35.93-5.86"/>
  </g>
</svg>