<svg width="371" height="76" viewBox="0 0 371 76" fill="none" xmlns="http://www.w3.org/2000/svg">
<path d="M292.754 58.6573V25.6548H299.888V54.0019H315.087V58.6573H292.754Z" fill="#5B0048"/>
<path d="M327.167 59.3491C320.033 59.3491 315.051 54.3666 315.051 46.44C315.051 38.5134 320.272 33.3422 327.079 33.3422C333.886 33.3422 338.403 38.0101 338.403 46.6287H321.946C322.134 52.3158 324.739 55.0209 328.702 55.0209C331.684 55.0209 334.112 53.1084 334.993 49.8497H338.68C337.51 55.8639 333.131 59.3617 327.167 59.3617V59.3491ZM326.928 37.0161C324.462 37.0161 322.688 38.9789 322.122 43.0806H331.395C331.068 39.0293 329.394 37.0161 326.916 37.0161H326.928Z" fill="#5B0048"/>
<path d="M343.295 58.6574V38.1866H339.281V34.0345H343.295V33.4683C343.295 28.0204 346.277 25.2146 352.102 25.2146C353.411 25.2146 354.858 25.4033 355.826 25.6298V29.266C355.172 29.0773 354.518 28.9892 353.826 28.9892C351.121 28.9892 349.863 30.2977 349.863 33.5061V34.022H354.707V38.174H349.863V58.6448H343.295V58.6574Z" fill="#5B0048"/>
<path d="M358.443 58.6574V38.1866H354.43V34.0345H358.443V33.4683C358.443 28.0204 361.425 25.2146 367.251 25.2146C368.559 25.2146 370.006 25.4033 370.975 25.6298V29.266C370.321 29.0773 369.666 28.9892 368.974 28.9892C366.269 28.9892 365.011 30.2977 365.011 33.5061V34.022H369.855V38.174H365.011V58.6448H358.443V58.6574Z" fill="#5B0048"/>
<path d="M98.5898 58.3549V25.3525H111.788C121.489 25.3525 128.573 32.1593 128.573 41.86C128.573 51.5607 121.577 58.3675 111.7 58.3675H98.6024L98.5898 58.3549ZM111.046 30.0581H105.736V53.6996H111.147C117.249 53.6996 121.036 49.4595 121.036 41.9103C121.036 34.3611 117.161 30.0707 111.059 30.0707L111.046 30.0581Z" fill="#5B0048"/>
<path d="M146.792 40.2618C145.911 40.0354 144.967 39.8969 143.999 39.8969C140.74 39.8969 138.915 41.8597 138.915 45.8608V58.3546H132.348V33.7444H138.551V40.5009C139.758 35.8833 142.929 33.0901 146.804 33.0398V40.2618H146.792Z" fill="#5B0048"/>
<path d="M170.282 59.1474C161.047 59.1474 154.102 52.1141 154.102 41.9479C154.102 31.7817 161.097 24.5597 170.37 24.5597C177.919 24.5597 183.657 29.5925 185.053 37.0536H177.592C176.85 31.6056 174.044 28.9885 170.081 28.9885C165.463 28.9885 161.638 33.6061 161.638 41.5705C161.638 49.5348 165.878 54.1147 171.704 54.1147C176.46 54.1147 180.008 51.1831 181.216 45.949H185.644C184.059 54.1147 178.045 59.1474 170.257 59.1474H170.282Z" fill="#5B0048"/>
<path d="M194.804 59.009C190.514 59.009 187.582 56.3542 187.582 52.5796C187.582 48.805 189.822 46.339 195.458 45.0682C200.818 43.8981 202.177 42.7405 202.177 40.7778C202.177 38.966 200.541 37.4184 197.748 37.4184C194.817 37.4184 192.577 39.2805 192.011 42.4512H188.324C189.029 36.7138 193.357 33.0273 199.422 33.0273C205.486 33.0273 209.16 36.5754 209.16 41.8346V52.3657C209.16 54.2278 209.865 54.9702 211.588 55.0708V58.3296C210.846 58.6064 209.676 58.7951 208.418 58.7951C205.058 58.7951 203.196 57.1594 202.731 54.5046C201.334 57.2978 198.528 58.9838 194.804 58.9838V59.009ZM197.56 54.6682C200.491 54.6682 202.592 52.5167 202.592 49.2077V44.8669C201.8 46.0747 200.353 47.0058 198.075 47.7985C195.32 48.7799 194.25 50.0884 194.25 51.7618C194.25 53.4352 195.509 54.6556 197.56 54.6556V54.6682Z" fill="#5B0048"/>
<path d="M228.698 40.2618C227.817 40.0354 226.874 39.8969 225.905 39.8969C222.646 39.8969 220.822 41.8597 220.822 45.8608V58.3546H214.254V33.7444H220.457V40.5009C221.665 35.8833 224.835 33.0901 228.711 33.0398V40.2618H228.698Z" fill="#5B0048"/>
<path d="M245.546 40.2618C244.665 40.0354 243.721 39.8969 242.752 39.8969C239.494 39.8969 237.669 41.8597 237.669 45.8608V58.3546H231.102V33.7444H237.304V40.5009C238.512 35.8833 241.683 33.0901 245.558 33.0398V40.2618H245.546Z" fill="#5B0048"/>
<path d="M248.39 29.5925V23.075H254.908V29.5925H248.39ZM248.34 58.3548V33.7445H254.908V58.3548H248.34Z" fill="#5B0048"/>
<path d="M270.609 59.0467C263.475 59.0467 258.492 54.0642 258.492 46.1376C258.492 38.211 263.714 33.0398 270.521 33.0398C277.327 33.0398 281.844 37.7077 281.844 46.3263H265.387C265.576 52.0134 268.18 54.7185 272.144 54.7185C275.126 54.7185 277.554 52.806 278.435 49.5473H282.121C280.951 55.5615 276.572 59.0592 270.609 59.0592V59.0467ZM270.37 36.7263C267.903 36.7263 266.129 38.6891 265.563 42.7908H274.836C274.509 38.7394 272.836 36.7263 270.357 36.7263H270.37Z" fill="#5B0048"/>
<path d="M42.1739 74.3212H52.2269V60.7453H38.2987C29.1768 60.7453 26.1571 60.0282 22.7852 58.8329C24.8612 68.3197 31.9071 74.3212 42.1739 74.3212Z" fill="#FF467D" stroke="#FF467D" stroke-width="3.12032" stroke-miterlimit="12"/>
<path d="M1.55859 33.5686V1.56018H16.3046V37.7584C16.3046 47.6856 17.0847 50.9694 18.3806 54.6308C8.07604 52.3786 1.55859 44.7288 1.55859 33.5686Z" fill="#5B0048" stroke="#5B0048" stroke-width="3.12032" stroke-miterlimit="12"/>
<path d="M29.4162 1.56018H19.3633V15.1361H33.2915C42.4134 15.1361 45.4331 15.8533 48.805 17.0485C46.729 7.56176 39.6831 1.56018 29.4162 1.56018Z" fill="#FF467D" stroke="#FF467D" stroke-width="3.12032" stroke-miterlimit="12"/>
<path d="M70.0447 42.2998V74.3082H55.2987V38.11C55.2987 28.1828 54.5186 24.899 53.2227 21.2376C63.5273 23.4898 70.0447 31.1396 70.0447 42.2998Z" fill="#5B0048" stroke="#5B0048" stroke-width="3.12032" stroke-miterlimit="12"/>
</svg>
