<?xml version="1.0" encoding="UTF-8"?>
<svg id="Carrie_Leff_Logo_x5F_RGB" xmlns="http://www.w3.org/2000/svg" version="1.1" viewBox="0 0 792 612">
  <!-- Generator: Adobe Illustrator 30.2.1, SVG Export Plug-In . SVG Version: 2.1.1 Build 1)  -->
  <defs>
    <style>
      .st0 {
        fill: #5b0048;
      }

      .st1 {
        fill: #ff4a76;
      }
    </style>
  </defs>
  <g>
    <g>
      <path class="st0" d="M419.72,232.55c1.41,4.19,2.17,8.68,2.17,13.34v62.59s26.31,0,26.31,0v-36.28c0-18.44-11.93-34.09-28.49-39.66"/>
      <path class="st1" d="M419.72,232.55c-5.57-16.56-21.22-28.49-39.66-28.49h-9.97s0,26.31,0,26.31h36.28c4.67,0,9.15.77,13.34,2.18"/>
    </g>
    <g>
      <path class="st0" d="M372.27,279.99c-1.41-4.19-2.17-8.68-2.17-13.34v-62.59s-26.31,0-26.31,0v36.28c0,18.44,11.93,34.09,28.48,39.66"/>
      <path class="st1" d="M372.27,279.99c5.57,16.56,21.22,28.49,39.66,28.49h9.97s0-26.31,0-26.31h-36.28c-4.66,0-9.15-.77-13.34-2.18"/>
    </g>
  </g>
  <g>
    <g>
      <path class="st0" d="M200.08,387.32v-48.14h19.24c14.14,0,24.48,9.93,24.48,24.07s-10.2,24.07-24.62,24.07h-19.11ZM218.23,346.04h-7.75v34.48h7.89c8.91,0,14.42-6.19,14.42-17.2s-5.64-17.27-14.55-17.27Z"/>
      <path class="st0" d="M270.93,360.93c-1.29-.34-2.65-.54-4.08-.54-4.76,0-7.41,2.86-7.41,8.7v18.22h-9.59v-35.9h9.04v9.86c1.77-6.73,6.39-10.81,12.04-10.88v10.54Z"/>
      <path class="st0" d="M304.73,388.47c-13.46,0-23.6-10.27-23.6-25.09s10.2-25.36,23.73-25.36c11.02,0,19.38,7.34,21.42,18.22h-10.88c-1.09-7.96-5.17-11.76-10.95-11.76-6.73,0-12.31,6.73-12.31,18.36s6.19,18.29,14.69,18.29c6.94,0,12.1-4.28,13.87-11.9h6.46c-2.31,11.9-11.08,19.24-22.44,19.24Z"/>
      <path class="st0" d="M340.77,388.27c-6.26,0-10.54-3.88-10.54-9.38s3.26-9.11,11.49-10.95c7.82-1.7,9.79-3.4,9.79-6.26,0-2.65-2.38-4.9-6.46-4.9-4.28,0-7.55,2.72-8.36,7.34h-5.37c1.02-8.36,7.34-13.74,16.18-13.74s14.21,5.17,14.21,12.85v15.37c0,2.72,1.02,3.81,3.54,3.94v4.76c-1.09.41-2.79.68-4.62.68-4.9,0-7.62-2.38-8.3-6.26-2.04,4.08-6.12,6.53-11.56,6.53ZM344.78,381.94c4.28,0,7.34-3.13,7.34-7.96v-6.32c-1.16,1.77-3.26,3.13-6.6,4.28-4.01,1.43-5.58,3.33-5.58,5.78s1.84,4.22,4.83,4.22Z"/>
      <path class="st0" d="M390.47,360.93c-1.29-.34-2.65-.54-4.08-.54-4.76,0-7.41,2.86-7.41,8.7v18.22h-9.59v-35.9h9.04v9.86c1.77-6.73,6.39-10.81,12.04-10.88v10.54Z"/>
      <path class="st0" d="M415.22,360.93c-1.29-.34-2.65-.54-4.08-.54-4.76,0-7.41,2.86-7.41,8.7v18.22h-9.59v-35.9h9.04v9.86c1.77-6.73,6.39-10.81,12.04-10.88v10.54Z"/>
      <path class="st0" d="M419.92,387.32v-35.9h9.59v35.9h-9.59Z"/>
      <path class="st0" d="M452.76,388.34c-10.4,0-17.68-7.28-17.68-18.84s7.62-19.11,17.54-19.11,16.52,6.8,16.52,19.38h-24c.27,8.3,4.08,12.24,9.86,12.24,4.35,0,7.89-2.79,9.18-7.55h5.37c-1.7,8.77-8.09,13.87-16.79,13.87ZM452.42,355.76c-3.6,0-6.19,2.86-7,8.84h13.53c-.48-5.92-2.92-8.84-6.53-8.84Z"/>
      <path class="st0" d="M486.21,387.32v-48.14h10.4v41.34h22.17v6.8h-32.57Z"/>
      <path class="st0" d="M536.67,388.34c-10.4,0-17.68-7.28-17.68-18.84s7.62-19.11,17.54-19.11,16.52,6.8,16.52,19.38h-24c.27,8.3,4.08,12.24,9.86,12.24,4.35,0,7.89-2.79,9.18-7.55h5.37c-1.7,8.77-8.09,13.87-16.79,13.87ZM536.33,355.76c-3.6,0-6.19,2.86-7,8.84h13.53c-.48-5.92-2.92-8.84-6.53-8.84Z"/>
      <path class="st0" d="M560.47,387.32v-29.85h-5.85v-6.05h5.85v-.82c0-7.96,4.35-12.04,12.85-12.04,1.9,0,4.01.27,5.44.61v5.3c-.95-.27-1.9-.41-2.92-.41-3.94,0-5.78,1.9-5.78,6.6v.75h7.07v6.05h-7.07v29.85h-9.59Z"/>
      <path class="st0" d="M582.91,387.32v-29.85h-5.85v-6.05h5.85v-.82c0-7.96,4.35-12.04,12.85-12.04,1.9,0,4.01.27,5.44.61v5.3c-.95-.27-1.9-.41-2.92-.41-3.94,0-5.78,1.9-5.78,6.6v.75h7.07v6.05h-7.07v29.85h-9.59Z"/>
    </g>
    <rect class="st0" x="419.92" y="337.19" width="9.59" height="9.59"/>
  </g>
</svg>