<?xml version="1.0" encoding="UTF-8"?>
<svg id="Carrie_Leff_Logo_x5F_RGB" xmlns="http://www.w3.org/2000/svg" version="1.1" viewBox="0 0 792 612">
  <!-- Generator: Adobe Illustrator 30.2.1, SVG Export Plug-In . SVG Version: 2.1.1 Build 1)  -->
  <defs>
    <style>
      .st0 {
        fill: #5b0048;
      }

      .st1 {
        fill: #ff4a76;
      }
    </style>
  </defs>
  <g>
    <g>
      <path class="st0" d="M200.35,285.21c1.05,3.12,1.62,6.45,1.62,9.92v46.53s19.56,0,19.56,0v-26.97c0-13.71-8.87-25.34-21.18-29.48"/>
      <path class="st1" d="M200.35,285.21c-4.14-12.31-15.78-21.18-29.48-21.18h-7.41s0,19.56,0,19.56h26.97c3.47,0,6.8.57,9.92,1.62"/>
    </g>
    <g>
      <path class="st0" d="M165.07,320.48c-1.05-3.12-1.61-6.45-1.61-9.92v-46.53s-19.56,0-19.56,0v26.97c0,13.71,8.87,25.34,21.18,29.48"/>
      <path class="st1" d="M165.07,320.48c4.14,12.31,15.78,21.18,29.48,21.18h7.41s0-19.56,0-19.56h-26.97c-3.47,0-6.8-.57-9.92-1.62"/>
    </g>
  </g>
  <g>
    <g>
      <path class="st0" d="M250.51,328.92v-48.14h19.25c14.14,0,24.48,9.93,24.48,24.07s-10.2,24.07-24.61,24.07h-19.11ZM268.66,287.65h-7.75v34.47h7.89c8.91,0,14.41-6.19,14.41-17.2s-5.64-17.27-14.55-17.27Z"/>
      <path class="st0" d="M321.36,302.54c-1.29-.34-2.65-.54-4.08-.54-4.76,0-7.41,2.86-7.41,8.7v18.22h-9.59v-35.9h9.04v9.86c1.77-6.73,6.39-10.81,12.04-10.88v10.54Z"/>
      <path class="st0" d="M355.15,330.07c-13.46,0-23.59-10.27-23.59-25.09s10.2-25.36,23.73-25.36c11.02,0,19.38,7.34,21.42,18.22h-10.88c-1.09-7.96-5.17-11.76-10.95-11.76-6.73,0-12.31,6.73-12.31,18.36s6.19,18.29,14.69,18.29c6.94,0,12.1-4.28,13.87-11.9h6.46c-2.31,11.9-11.08,19.24-22.44,19.24Z"/>
      <path class="st0" d="M391.19,329.87c-6.25,0-10.54-3.88-10.54-9.38s3.26-9.11,11.49-10.95c7.82-1.7,9.79-3.4,9.79-6.26,0-2.65-2.38-4.9-6.46-4.9-4.28,0-7.55,2.72-8.36,7.34h-5.37c1.02-8.36,7.34-13.74,16.18-13.74s14.21,5.17,14.21,12.85v15.37c0,2.72,1.02,3.81,3.54,3.94v4.76c-1.09.41-2.79.68-4.62.68-4.9,0-7.61-2.38-8.29-6.25-2.04,4.08-6.12,6.53-11.56,6.53ZM395.2,323.55c4.28,0,7.34-3.13,7.34-7.96v-6.32c-1.16,1.77-3.26,3.13-6.6,4.28-4.01,1.43-5.58,3.33-5.58,5.78s1.84,4.22,4.83,4.22Z"/>
      <path class="st0" d="M440.89,302.54c-1.29-.34-2.65-.54-4.08-.54-4.76,0-7.41,2.86-7.41,8.7v18.22h-9.59v-35.9h9.04v9.86c1.77-6.73,6.39-10.81,12.04-10.88v10.54Z"/>
      <path class="st0" d="M465.64,302.54c-1.29-.34-2.65-.54-4.08-.54-4.76,0-7.41,2.86-7.41,8.7v18.22h-9.59v-35.9h9.04v9.86c1.77-6.73,6.39-10.81,12.04-10.88v10.54Z"/>
      <path class="st0" d="M470.33,328.92v-35.9h9.59v35.9h-9.59Z"/>
      <path class="st0" d="M503.17,329.94c-10.4,0-17.68-7.28-17.68-18.84s7.61-19.11,17.54-19.11,16.52,6.8,16.52,19.38h-24c.27,8.29,4.08,12.24,9.86,12.24,4.35,0,7.89-2.79,9.18-7.55h5.37c-1.7,8.77-8.09,13.87-16.79,13.87ZM502.83,297.37c-3.6,0-6.19,2.86-7,8.84h13.53c-.48-5.92-2.92-8.84-6.53-8.84Z"/>
      <path class="st0" d="M536.62,328.92v-48.14h10.4v41.34h22.17v6.8h-32.57Z"/>
      <path class="st0" d="M587.08,329.94c-10.4,0-17.68-7.28-17.68-18.84s7.62-19.11,17.54-19.11,16.52,6.8,16.52,19.38h-24c.27,8.29,4.08,12.24,9.86,12.24,4.35,0,7.89-2.79,9.18-7.55h5.37c-1.7,8.77-8.09,13.87-16.79,13.87ZM586.74,297.37c-3.6,0-6.19,2.86-7,8.84h13.53c-.48-5.92-2.92-8.84-6.53-8.84Z"/>
      <path class="st0" d="M610.87,328.92v-29.85h-5.85v-6.05h5.85v-.82c0-7.96,4.35-12.03,12.85-12.03,1.9,0,4.01.27,5.44.61v5.3c-.95-.27-1.9-.41-2.92-.41-3.95,0-5.78,1.9-5.78,6.6v.75h7.07v6.05h-7.07v29.85h-9.59Z"/>
      <path class="st0" d="M633.31,328.92v-29.85h-5.85v-6.05h5.85v-.82c0-7.96,4.35-12.03,12.85-12.03,1.9,0,4.01.27,5.44.61v5.3c-.95-.27-1.9-.41-2.92-.41-3.94,0-5.78,1.9-5.78,6.6v.75h7.07v6.05h-7.07v29.85h-9.59Z"/>
    </g>
    <rect class="st0" x="470.33" y="278.79" width="9.59" height="9.59"/>
  </g>
</svg>